<?xml version="1.0" encoding="UTF-8" standalone="no"?>
<svg
   xmlns:dc="http://purl.org/dc/elements/1.1/"
   xmlns:cc="http://creativecommons.org/ns#"
   xmlns:rdf="http://www.w3.org/1999/02/22-rdf-syntax-ns#"
   xmlns:svg="http://www.w3.org/2000/svg"
   xmlns="http://www.w3.org/2000/svg"
   width="256"
   height="256"
   viewBox="0 0 256 256"
   id="svg3373"
   version="1.1">
  <defs
     id="defs3375" />
  <metadata
     id="metadata3378">
    <rdf:RDF>
      <cc:Work
         rdf:about="">
        <dc:format>image/svg+xml</dc:format>
        <dc:type
           rdf:resource="http://purl.org/dc/dcmitype/StillImage" />
        <dc:title></dc:title>
      </cc:Work>
    </rdf:RDF>
  </metadata>
  <g
     style="fill:#f2f2f2"
     id="layer1"
     transform="translate(0,-796.3622)">
    <g
       transform="translate(-299.70468,315.90679)"
       style="font-style:normal;font-variant:normal;font-weight:500;font-stretch:normal;font-size:65.69281006px;line-height:125%;font-family:serif;-inkscape-font-specification:'serif Medium';letter-spacing:0px;word-spacing:0px;display:inline;fill:#f2f2f2;fill-opacity:1;stroke:none;stroke-width:1px;stroke-linecap:butt;stroke-linejoin:miter;stroke-opacity:1"
       id="flowRoot4492">
      <path
         d="m 329.78284,678.42294 0,-6.79322 12.17651,0 0,-82.03125 -12.17651,0 0,-6.8573 37.36267,0 0,6.8573 -12.17652,0 0,33.06885 49.60328,0 0,-33.06885 -12.17652,0 0,-6.8573 37.36267,0 0,6.8573 -12.17651,0 0,82.03125 12.17651,0 0,6.79322 -37.36267,0 0,-6.79322 12.17652,0 0,-41.14379 -49.60328,0 0,41.14379 12.17652,0 0,6.79322 -37.36267,0 z"
         style="font-style:normal;font-variant:normal;font-weight:500;font-stretch:normal;font-size:131.25px;font-family:serif;-inkscape-font-specification:'serif Medium';letter-spacing:0px;fill:#f2f2f2"
         id="path5104" />
      <path
         d="m 469.5564,671.62972 19.16198,0 q 11.53565,0 16.85486,-4.99878 5.31922,-4.99877 5.31922,-15.89355 0,-10.83069 -5.31922,-15.76538 -5.25512,-4.99878 -16.85486,-4.99878 l -19.16198,0 0,41.65649 z m 0,-48.4497 16.27807,0 q 10.51026,0 15.31678,-4.03748 4.8706,-4.03747 4.8706,-12.75329 0,-8.77991 -4.8706,-12.7533 -4.80652,-4.03748 -15.31678,-4.03748 l -16.27807,0 0,33.58155 z m -25.18616,55.24292 0,-6.79322 12.17651,0 0,-82.03125 -12.17651,0 0,-6.8573 47.23205,0 q 14.48365,0 21.78956,5.96009 7.36999,5.89599 7.36999,17.68799 0,8.52355 -5.12695,13.58642 -5.06287,5.06287 -14.86817,6.21643 12.17652,1.53809 18.45703,7.81861 6.34461,6.21643 6.34461,16.72668 0,14.22729 -8.97217,20.95642 -8.97217,6.72913 -28.00598,6.72913 l -44.21997,0 z"
         style="font-style:normal;font-variant:normal;font-weight:500;font-stretch:normal;font-size:131.25px;font-family:serif;-inkscape-font-specification:'serif Medium';letter-spacing:0px;fill:#f2f2f2"
         id="path5106" />
    </g>
    <path
       id="path4500"
       style="display:inline;fill:#f2f2f2;fill-opacity:1;fill-rule:evenodd;stroke:none;stroke-width:1.17537689px;stroke-linecap:butt;stroke-linejoin:miter;stroke-opacity:1"
       d="m 23.549331,1022.8331 0,-15.0767 c 69.61439,0 139.228779,0 208.843169,0 l 0,15.0767 c -69.61439,0 -139.228779,0 -208.843169,0 z" />
    <path
       d="m 23.542561,885.22133 0,-15.05713 104.428359,-44.2729 104.48652,44.2729 0,15.05713 z"
       style="display:inline;fill:#f2f2f2;fill-opacity:1;fill-rule:evenodd;stroke:none;stroke-width:0.29876193px;stroke-linecap:butt;stroke-linejoin:miter;stroke-opacity:1"
       id="path4502" />
  </g>
</svg>
